# xmcd
#
# Track frame offsets:
#	150
#	13635
#	30485
#	47227
#	64965
#	82066
#	103426
#	121812
#	132737
#	151043
#	166402
#	178877
#	196803
#	208759
#	224191
#
# Disc length: 3137 seconds
#
# Revision: 1
# Processed by: cddbd v1.5.2PL0 Copyright (c) Steve Scherf et al.
# Submitted via: audiograbber 1.83.01
#
DISCID=e40c3f0f
DTITLE=The Sunny Cowgirls - Dust Will Settle
DYEAR=2008
DGENRE=Country
TTITLE0=Dancing On The Darling
TTITLE1=Acting Stupid
TTITLE2=Grog Monster
TTITLE3=Pink Galahs
TTITLE4=Naked
TTITLE5=Kelpie
TTITLE6=Dust Will Settle
TTITLE7=The Old Silo
TTITLE8=Take The Time
TTITLE9=The Hard Way
TTITLE10=Rabbit
TTITLE11=One Of You
TTITLE12=Live It Loud
TTITLE13=Ten Bucks In The Glovebox
TTITLE14=Someday - Duet With Adam Brand
EXTD=
EXTT0=
EXTT1=
EXTT2=
EXTT3=
EXTT4=
EXTT5=
EXTT6=
EXTT7=
EXTT8=
EXTT9=
EXTT10=
EXTT11=
EXTT12=
EXTT13=
EXTT14=
PLAYORDER=
